<svg width="156" height="350" viewBox="0 0 156 350" fill="none" xmlns="http://www.w3.org/2000/svg">
<path d="M81.01 304.751C79.9324 304.49 78.8069 304.331 77.6415 304.321C68.059 304.215 59.6798 311.144 50.0274 307.121C50.0274 307.121 62.8028 327.855 77.1107 326.628C83.9195 326.044 88.0741 323.176 90.5785 320.329L90.3351 320.135C89.9679 319.843 82.2013 313.535 81.01 304.749V304.751Z" fill="#F7BC44"/>
<path d="M86.8906 274.495C86.8906 274.495 106.906 288.399 104.874 302.593C102.845 316.788 91.3866 318.816 91.3866 318.816C91.3866 318.816 82.1054 311.431 82.5404 301.87C82.9754 292.311 90.3728 284.345 86.8906 274.495Z" fill="#F7BC44"/>
<path d="M63.1202 285.609C62.1484 285.32 61.1306 285.115 60.067 285.045C51.3206 284.461 43.3146 290.366 34.7039 286.203C34.7039 286.203 45.3181 305.786 58.4467 305.391C64.6947 305.206 68.6318 302.796 71.0664 300.325L70.8529 300.136C70.5316 299.849 63.7588 293.695 63.1202 285.609Z" fill="#F7BC44"/>
<path d="M70.0347 258.272C70.0347 258.272 87.6054 271.986 85.0271 284.848C82.4489 297.709 71.8826 298.982 71.8826 298.982C71.8826 298.982 63.7827 291.761 64.6648 283.052C65.5508 274.342 72.7127 267.445 70.0347 258.27V258.272Z" fill="#F7BC44"/>
<path d="M47.0481 265.265C46.2219 264.808 45.3359 264.424 44.38 264.151C36.5376 261.911 28.0985 265.715 21.0803 260.243C21.0803 260.243 26.8952 280.129 38.9163 282.341C44.6355 283.391 48.6904 281.97 51.3883 280.201L51.2327 279.985C50.9952 279.664 46.0403 272.74 47.0461 265.263L47.0481 265.265Z" fill="#F7BC44"/>
<path d="M58.6963 241.746C58.6963 241.746 71.9905 257.656 67.1254 268.854C62.2583 280.051 52.3964 279.138 52.3964 279.138C52.3964 279.138 46.4417 270.988 48.9521 263.24C51.4645 255.49 59.3328 250.616 58.6963 241.746Z" fill="#F7BC44"/>
<path d="M34.4205 243.602C33.6901 243.004 32.8899 242.462 32.0019 242.021C24.6963 238.398 15.7044 240.612 9.79764 233.961C9.79764 233.961 11.9049 254.57 23.3253 258.922C28.7591 260.99 33.0056 260.327 35.979 259.075L35.8652 258.836C35.6896 258.477 32.0757 250.769 34.4225 243.602H34.4205Z" fill="#F7BC44"/>
<path d="M50.145 222.58C50.145 222.58 60.3302 240.634 53.5114 250.764C46.6927 260.895 37.1601 258.21 37.1601 258.21C37.1601 258.21 32.7859 249.118 36.6612 241.954C40.5405 234.788 49.1612 231.418 50.145 222.58Z" fill="#F7BC44"/>
<path d="M27.1509 220.453C26.5163 219.774 25.8039 219.144 24.9918 218.596C18.3227 214.107 9.24704 215.101 4.34004 207.833C4.34004 207.833 3.71544 228.251 14.3097 233.986C19.3524 236.716 23.5869 236.619 26.656 235.78L26.5762 235.533C26.4525 235.158 23.9241 227.159 27.1489 220.453H27.1509Z" fill="#F7BC44"/>
<path d="M45.2578 201.953C45.2578 201.953 52.8607 220.92 44.8786 229.933C36.8945 238.95 27.9266 235.09 27.9266 235.09C27.9266 235.09 24.8355 225.635 29.555 219.136C34.2784 212.638 43.1445 210.462 45.2578 201.953Z" fill="#F7BC44"/>
<path d="M21.4656 195.161C20.9288 194.402 20.3081 193.681 19.5778 193.031C13.5772 187.686 4.44969 187.451 0.566388 179.588C0.566388 179.588 -2.80805 199.735 6.91616 206.843C11.5438 210.226 15.7544 210.699 18.9093 210.282L18.8614 210.027C18.7915 209.639 17.3627 201.373 21.4656 195.163V195.161Z" fill="#F7BC44"/>
<path d="M41.9038 179.267C41.9038 179.267 46.8787 199.083 37.7511 206.94C28.6236 214.8 20.2583 209.77 20.2583 209.77C20.2583 209.77 18.4703 199.986 24.0259 194.181C29.5834 188.374 38.6611 187.413 41.9038 179.267Z" fill="#F7BC44"/>
<path d="M22.5051 169.779C22.08 168.954 21.5712 168.149 20.9406 167.4C15.7642 161.256 6.76234 159.722 4.04643 151.388C4.04643 151.388 -2.17164 170.847 6.43507 179.267C10.5339 183.276 14.6327 184.342 17.8156 184.378L17.8056 184.119C17.7916 183.725 17.5581 175.339 22.5071 169.777L22.5051 169.779Z" fill="#F7BC44"/>
<path d="M45.0048 156.962C45.0048 156.962 47.0961 177.284 36.9409 183.761C26.7836 190.239 19.2226 184.068 19.2226 184.068C19.2226 184.068 18.8514 174.128 25.1792 169.176C31.511 164.22 40.6326 164.562 45.0068 156.962H45.0048Z" fill="#F7BC44"/>
<path d="M23.4391 144.266C23.1637 143.379 22.7965 142.5 22.3036 141.656C18.2487 134.721 9.64199 131.68 8.38281 123.005C8.38281 123.005 -1.06002 141.125 5.98619 150.886C9.34266 155.531 13.2 157.279 16.331 157.857L16.3629 157.6C16.4168 157.211 17.6161 148.907 23.4391 144.268V144.266Z" fill="#F7BC44"/>
<path d="M47.7966 135.46C47.7966 135.46 46.3937 155.842 35.2826 160.497C24.1695 165.154 17.7719 157.787 17.7719 157.787C17.7719 157.787 19.1009 147.929 26.179 144.125C33.2631 140.316 42.1911 142.206 47.7986 135.458L47.7966 135.46Z" fill="#F7BC44"/>
<path d="M31.2196 118.651C31.0879 117.731 30.8684 116.804 30.5172 115.893C27.6297 108.398 19.6196 104.018 19.7713 95.2562C19.7713 95.2562 7.54067 111.629 12.9286 122.392C15.4948 127.513 19.0209 129.857 22.0182 130.927L22.0921 130.678C22.2058 130.301 24.7242 122.298 31.2176 118.651H31.2196Z" fill="#F7BC44"/>
<path d="M56.6765 113.857C56.6765 113.857 52.019 133.75 40.3032 136.566C28.5875 139.384 23.453 131.088 23.453 131.088C23.453 131.088 26.3485 121.571 33.9455 118.948C41.5485 116.324 50.0594 119.62 56.6765 113.857Z" fill="#F7BC44"/>
<path d="M42.9596 96.653C42.8498 95.7324 42.6522 94.7997 42.321 93.8811C39.6111 86.3205 31.7088 81.7531 32.066 72.9969C32.066 72.9969 19.4522 89.0765 24.5867 99.963C27.0313 105.144 30.5015 107.569 33.4748 108.709L33.5546 108.462C33.6784 108.089 36.3843 100.148 42.9596 96.653Z" fill="#F7BC44"/>
<path d="M68.522 92.4604C68.522 92.4604 63.3974 112.239 51.6178 114.779C39.8382 117.322 34.9013 108.907 34.9013 108.907C34.9013 108.907 38.0203 99.459 45.6772 97.0159C53.34 94.5708 61.7711 98.0641 68.522 92.4604Z" fill="#F7BC44"/>
<path d="M55.2797 73.7146C55.4892 72.8119 55.6169 71.8693 55.6169 70.8889C55.6189 62.86 49.7221 55.8973 53.0147 47.7768C53.0147 47.7768 35.7115 58.6672 36.8669 70.6438C37.4197 76.3431 39.8682 79.7945 42.2808 81.871L42.4384 81.6657C42.6799 81.3569 47.9102 74.7907 55.2817 73.7146H55.2797Z" fill="#F7BC44"/>
<path d="M80.7589 78.3753C80.7589 78.3753 69.2547 95.2679 57.3094 93.6937C45.3622 92.1174 43.5563 82.5362 43.5563 82.5362C43.5563 82.5362 49.6825 74.6887 57.7165 74.9716C65.7565 75.2506 72.5114 81.3784 80.7589 78.3753Z" fill="#F7BC44"/>
<path d="M73.5587 56.4211C73.87 55.5463 74.1035 54.6256 74.2152 53.6512C75.1292 45.6741 70.0585 38.0917 74.2511 30.3936C74.2511 30.3936 55.8224 39.2535 55.6109 51.2878C55.5131 57.011 57.5545 60.7175 59.7137 63.055L59.8953 62.8677C60.1707 62.5887 66.1114 56.6583 73.5567 56.4231L73.5587 56.4211Z" fill="#F7BC44"/>
<path d="M98.3469 63.9358C98.3469 63.9358 84.9988 79.4176 73.309 76.5021C61.6152 73.5847 60.9108 63.8601 60.9108 63.8601C60.9108 63.8601 67.8872 56.7578 75.8373 57.9455C83.7955 59.1332 89.812 65.9863 98.3469 63.9358Z" fill="#F7BC44"/>
<path d="M93.5618 39.062C93.9748 38.231 94.3201 37.3462 94.5496 36.3916C96.4274 28.584 92.3186 20.4416 97.4191 13.3115C97.4191 13.3115 78.0485 19.8657 76.3723 31.7844C75.5781 37.4558 77.1526 41.3795 79.0124 43.9642L79.2159 43.7988C79.5252 43.5556 86.1424 38.3904 93.5618 39.06V39.062Z" fill="#F7BC44"/>
<path d="M117.251 49.5321C117.251 49.5321 102.119 63.2782 90.87 58.9639C79.6192 54.6456 80.1041 44.9089 80.1041 44.9089C80.1041 44.9089 87.8927 38.7054 95.6393 40.8517C103.392 42.9979 108.53 50.5305 117.251 49.5301V49.5321Z" fill="#F7BC44"/>
<path d="M115.293 24.9893C115.818 24.2201 116.279 23.3911 116.636 22.4764C119.56 14.9955 116.594 6.37286 122.621 0C122.621 0 102.538 3.86795 99.2552 15.4479C97.6967 20.9579 98.7224 25.059 100.213 27.8708L100.437 27.7353C100.776 27.536 108.036 23.3173 115.295 24.9893H115.293Z" fill="#F7BC44"/>
<path d="M137.338 38.5762C137.338 38.5762 120.476 50.1422 109.917 44.3412C99.3569 38.5363 101.161 28.9571 101.161 28.9571C101.161 28.9571 109.724 23.8696 117.105 27.0441C124.495 30.2225 128.559 38.3809 137.336 38.5762H137.338Z" fill="#F7BC44"/>
<path d="M119.995 22.9625C118.406 19.7342 116.377 -2.21212 155.549 11.6017C155.549 11.6017 145.982 16.6354 144.43 19.3476C142.877 22.0597 127.622 38.4562 119.995 22.9625Z" fill="#F7BC44"/>
<path d="M91.5527 322.547C91.5527 322.547 115.467 351.769 156 349.915L155.513 342.209C155.513 342.209 125.598 349.26 94.3065 320.403L91.5527 322.547Z" fill="#F7BC44"/>
</svg>
