<svg width="49" height="54" viewBox="0 0 49 54" fill="none" xmlns="http://www.w3.org/2000/svg">
<path d="M13.25 7.49844L24.5 13.9732L35.75 7.49844M13.25 46.2972V33.3726L2 26.8978M47 26.8978L35.75 33.3726V46.2972M2.675 14.3468L24.5 26.9227L46.325 14.3468M24.5 52V26.8978M47 36.859V16.9367C46.9991 16.0632 46.7676 15.2054 46.3288 14.4493C45.8901 13.6931 45.2593 13.0652 44.5 12.6284L27 2.66727C26.2399 2.23013 25.3777 2 24.5 2C23.6223 2 22.7601 2.23013 22 2.66727L4.5 12.6284C3.74066 13.0652 3.10995 13.6931 2.67115 14.4493C2.23236 15.2054 2.0009 16.0632 2 16.9367V36.859C2.0009 37.7324 2.23236 38.5902 2.67115 39.3464C3.10995 40.1026 3.74066 40.7305 4.5 41.1672L22 51.1284C22.7601 51.5655 23.6223 51.7957 24.5 51.7957C25.3777 51.7957 26.2399 51.5655 27 51.1284L44.5 41.1672C45.2593 40.7305 45.8901 40.1026 46.3288 39.3464C46.7676 38.5902 46.9991 37.7324 47 36.859Z" stroke="#F7BC44" stroke-width="4" stroke-linecap="round" stroke-linejoin="round"/>
</svg>
