<svg width="23" height="22" viewBox="0 0 23 22" fill="none" xmlns="http://www.w3.org/2000/svg">
<path d="M17.4 5.5H17.41M6.90002 1H16.9C19.6614 1 21.9 3.23858 21.9 6V16C21.9 18.7614 19.6614 21 16.9 21H6.90002C4.1386 21 1.90002 18.7614 1.90002 16V6C1.90002 3.23858 4.1386 1 6.90002 1ZM15.9 10.37C16.0234 11.2022 15.8813 12.0522 15.4938 12.799C15.1063 13.5458 14.4932 14.1514 13.7417 14.5297C12.9901 14.9079 12.1385 15.0396 11.3078 14.9059C10.4771 14.7723 9.70979 14.3801 9.11486 13.7852C8.51994 13.1902 8.12776 12.4229 7.99409 11.5922C7.86043 10.7616 7.99209 9.90989 8.37035 9.15837C8.74861 8.40685 9.35421 7.79374 10.101 7.40624C10.8478 7.01874 11.6978 6.87659 12.53 7C13.3789 7.12588 14.1649 7.52146 14.7717 8.12831C15.3786 8.73515 15.7741 9.52108 15.9 10.37Z" stroke="white" stroke-width="2" stroke-linecap="round" stroke-linejoin="round"/>
</svg>
