<svg width="23" height="21" viewBox="0 0 23 21" fill="none" xmlns="http://www.w3.org/2000/svg">
<path d="M15.9 7C17.4913 7 19.0174 7.63214 20.1427 8.75736C21.2679 9.88258 21.9 11.4087 21.9 13V20H17.9V13C17.9 12.4696 17.6893 11.9609 17.3142 11.5858C16.9392 11.2107 16.4305 11 15.9 11C15.3696 11 14.8609 11.2107 14.4858 11.5858C14.1107 11.9609 13.9 12.4696 13.9 13V20H9.90002V13C9.90002 11.4087 10.5322 9.88258 11.6574 8.75736C12.7826 7.63214 14.3087 7 15.9 7Z" stroke="white" stroke-width="2" stroke-linecap="round" stroke-linejoin="round"/>
<path d="M5.90002 8H1.90002V20H5.90002V8Z" stroke="white" stroke-width="2" stroke-linecap="round" stroke-linejoin="round"/>
<path d="M3.90002 5C5.00459 5 5.90002 4.10457 5.90002 3C5.90002 1.89543 5.00459 1 3.90002 1C2.79545 1 1.90002 1.89543 1.90002 3C1.90002 4.10457 2.79545 5 3.90002 5Z" stroke="white" stroke-width="2" stroke-linecap="round" stroke-linejoin="round"/>
</svg>
