<svg width="312" height="50" viewBox="0 0 312 50" fill="none" xmlns="http://www.w3.org/2000/svg">
<path d="M59.2833 37.4557C60.4832 37.8338 61.7928 38.1159 63.2182 38.302C64.6435 38.488 65.9836 38.5841 67.2322 38.5841C68.7124 38.5841 70.156 38.452 71.5692 38.1879C72.9823 37.9238 74.2371 37.4677 75.3335 36.8134C76.4299 36.1592 77.307 35.2769 77.971 34.1605C78.6349 33.0441 78.9638 31.6336 78.9638 29.923C78.9638 28.3384 78.6532 27.072 78.0258 26.1176C77.3984 25.1633 76.6248 24.395 75.6929 23.8188C74.7609 23.2426 73.7498 22.8045 72.6534 22.4984C71.557 22.1982 70.5458 21.9101 69.6139 21.6341C68.6819 21.358 67.9084 21.0338 67.281 20.6557C66.6597 20.2776 66.3429 19.7374 66.3429 19.0351C66.3429 18.4589 66.5074 18.0088 66.8424 17.6786C67.1713 17.3545 67.5794 17.1084 68.0667 16.9464C68.5479 16.7843 69.0657 16.6823 69.6139 16.6463C70.1621 16.6103 70.6677 16.5923 71.1245 16.5923C72.1417 16.5923 73.159 16.6883 74.164 16.8744C75.169 17.0604 76.1314 17.3725 77.0512 17.7987L77.5081 12.3728C76.6187 12.0727 75.5711 11.8326 74.3711 11.6585C73.1711 11.4845 71.9224 11.3944 70.625 11.3944C69.3276 11.3944 67.9084 11.5205 66.5378 11.7726C65.1612 12.0246 63.9186 12.4508 62.8101 13.051C61.7015 13.6512 60.7878 14.4735 60.0751 15.5179C59.3625 16.5623 59.0031 17.8707 59.0031 19.4553C59.0031 21.0398 59.3137 22.3423 59.9411 23.2966C60.5624 24.251 61.3421 25.0133 62.274 25.5775C63.206 26.1417 64.2171 26.5798 65.3135 26.8979C66.4099 27.21 67.4211 27.5281 68.353 27.8403C69.285 28.1524 70.0585 28.5245 70.6859 28.9506C71.3133 29.3768 71.624 30.007 71.624 30.8353C71.624 31.3635 71.5022 31.7957 71.2585 32.1318C71.0149 32.4679 70.692 32.732 70.2839 32.9241C69.8758 33.1101 69.4068 33.2362 68.8708 33.3022C68.3347 33.3622 67.7865 33.3982 67.2261 33.3982C65.746 33.3982 64.3877 33.2362 63.139 32.906C61.8903 32.5819 60.8061 32.1678 59.8924 31.6636L59.2833 37.4617V37.4557Z" fill="white"/>
<path d="M80.6328 38.1339H99.8566V33.1641H87.7412V27.21H98.7845V22.2403H87.7412V16.8143H99.4363V11.8446H80.6328V38.1339Z" fill="white"/>
<path d="M100.831 24.9892C100.831 27.072 101.117 28.9566 101.69 30.6372C102.263 32.3178 103.115 33.7523 104.248 34.9288C105.381 36.1112 106.776 37.0115 108.433 37.6417C110.09 38.272 112.015 38.5841 114.207 38.5841C116.4 38.5841 118.288 38.272 119.957 37.6417C121.626 37.0115 123.027 36.1112 124.16 34.9288C125.293 33.7463 126.146 32.3178 126.719 30.6372C127.291 28.9566 127.578 27.072 127.578 24.9892C127.578 22.9065 127.291 20.9858 126.719 19.2992C126.146 17.6186 125.299 16.1901 124.179 15.0257C123.058 13.8553 121.663 12.961 119.994 12.3308C118.325 11.7005 116.394 11.3884 114.201 11.3884C112.008 11.3884 110.078 11.7005 108.409 12.3308C106.74 12.961 105.345 13.8553 104.224 15.0257C103.103 16.1961 102.256 17.6186 101.684 19.2992C101.111 20.9798 100.825 22.8765 100.825 24.9892H100.831ZM108.171 24.9892C108.171 23.8608 108.287 22.7865 108.512 21.7661C108.744 20.7517 109.097 19.8574 109.584 19.0891C110.065 18.3209 110.693 17.7147 111.454 17.2645C112.216 16.8143 113.135 16.5863 114.207 16.5863C115.279 16.5863 116.193 16.8143 116.961 17.2645C117.722 17.7147 118.349 18.3269 118.831 19.0891C119.312 19.8574 119.671 20.7457 119.903 21.7661C120.134 22.7805 120.244 23.8548 120.244 24.9892C120.244 26.1236 120.128 27.12 119.903 28.1344C119.671 29.1487 119.318 30.049 118.831 30.8293C118.349 31.6096 117.722 32.2278 116.961 32.696C116.193 33.1581 115.279 33.3922 114.207 33.3922C113.135 33.3922 112.222 33.1581 111.454 32.696C110.687 32.2338 110.065 31.6096 109.584 30.8293C109.103 30.049 108.744 29.1547 108.512 28.1344C108.281 27.12 108.171 26.0696 108.171 24.9892Z" fill="white"/>
<path d="M129.758 38.284H136.72L136.562 18.0928H136.641L143.14 38.284H149.676L156.48 18.0928H156.553L156.437 38.284H163.394V11.9946H152.618L146.692 29.4668H146.619L140.96 11.9946H129.758V38.284Z" fill="white"/>
<path d="M184.816 38.284C184.664 37.5037 184.56 36.7354 184.512 35.9671C184.463 35.1989 184.433 34.4306 184.433 33.6503V26.3457C184.433 24.8392 184.177 23.5727 183.671 22.5404C183.159 21.508 182.471 20.6737 181.606 20.0375C180.741 19.4013 179.736 18.9331 178.585 18.645C177.44 18.3569 176.228 18.2128 174.955 18.2128C173.474 18.2128 172.086 18.3209 170.788 18.5309C169.491 18.747 168.23 19.1012 167.006 19.6053L167.121 24.203C168.09 23.6748 169.107 23.2966 170.179 23.0746C171.251 22.8465 172.348 22.7384 173.468 22.7384C174.078 22.7384 174.662 22.7865 175.21 22.8885C175.759 22.9905 176.24 23.1706 176.66 23.4347C177.08 23.6988 177.409 24.0409 177.653 24.4731C177.897 24.8992 178.019 25.4514 178.019 26.1296C177.586 26.0516 177.08 25.9916 176.508 25.9436C175.935 25.8956 175.369 25.8656 174.808 25.8656C173.889 25.8656 172.841 25.9316 171.653 26.0756C170.465 26.2137 169.345 26.5138 168.291 26.9819C167.231 27.4441 166.342 28.1164 165.617 28.9987C164.892 29.875 164.527 31.0694 164.527 32.5759C164.527 33.6323 164.728 34.5446 165.136 35.3249C165.544 36.1052 166.092 36.7474 166.78 37.2636C167.469 37.7798 168.26 38.1579 169.15 38.392C170.039 38.6321 170.983 38.7521 171.976 38.7521C173.401 38.7521 174.614 38.47 175.606 37.9058C176.599 37.3416 177.495 36.4413 178.28 35.2109H178.36C178.36 35.715 178.378 36.2192 178.414 36.7354C178.451 37.2516 178.488 37.7738 178.512 38.296H184.816V38.284ZM170.941 32.0718C170.941 31.1174 171.343 30.4452 172.147 30.055C172.951 29.6649 173.937 29.4728 175.107 29.4728C175.619 29.4728 176.118 29.4848 176.618 29.5088C177.117 29.5329 177.58 29.5569 178.012 29.5869C178.012 30.1631 177.909 30.7273 177.708 31.2795C177.507 31.8317 177.227 32.3298 176.867 32.768C176.508 33.2062 176.063 33.5603 175.527 33.8244C174.991 34.0885 174.406 34.2205 173.767 34.2205C172.951 34.2205 172.275 34.0344 171.739 33.6563C171.202 33.2782 170.934 32.75 170.934 32.0718H170.941Z" fill="white"/>
<path d="M201.043 18.4349C200.684 18.3869 200.312 18.3329 199.916 18.2849C199.52 18.2368 199.118 18.2068 198.71 18.2068C197.206 18.2068 195.994 18.573 195.08 19.2992C194.16 20.0255 193.411 21.0218 192.826 22.2763H192.747V18.663H186.479V38.284H193.356V30.001C193.356 28.0683 193.789 26.5618 194.654 25.4814C195.518 24.401 196.755 23.8608 198.363 23.8608C198.771 23.8608 199.167 23.8668 199.551 23.8788C199.935 23.8909 200.318 23.9629 200.696 24.0829L201.037 18.4349H201.043Z" fill="white"/>
<path d="M202.249 38.284H209.126V28.5665H209.205L214.706 38.284H223.038L215.546 27.6602L222.466 18.657H214.937L209.205 26.9099H209.126V10.0319H202.249V38.284Z" fill="white"/>
<path d="M241.482 29.2087C241.482 27.7502 241.306 26.3577 240.946 25.0253C240.587 23.6928 240.014 22.5284 239.229 21.52C238.437 20.5177 237.401 19.7134 236.116 19.1072C234.831 18.5069 233.272 18.2008 231.432 18.2008C229.879 18.2008 228.453 18.4349 227.15 18.8971C225.853 19.3592 224.732 20.0255 223.788 20.8958C222.843 21.7601 222.106 22.8345 221.57 24.1189C221.034 25.3974 220.766 26.8439 220.766 28.4525C220.766 30.061 221.059 31.5316 221.644 32.804C222.228 34.0705 223.044 35.1448 224.092 36.0272C225.14 36.9035 226.358 37.5757 227.759 38.0439C229.16 38.506 230.689 38.7401 232.346 38.7401C233.643 38.7401 234.904 38.6381 236.128 38.44C237.353 38.2419 238.522 37.9238 239.643 37.4977V32.714C238.595 33.2662 237.56 33.6563 236.53 33.8844C235.501 34.1125 234.508 34.2205 233.57 34.2205C231.889 34.2205 230.543 33.9324 229.538 33.3562C228.533 32.78 227.924 31.8137 227.723 30.4572H241.482V29.2087ZM227.643 26.6098C227.722 25.4814 228.064 24.5151 228.673 23.7108C229.282 22.9065 230.214 22.5044 231.462 22.5044C232.839 22.5044 233.82 22.9065 234.405 23.7108C234.989 24.5151 235.282 25.4814 235.282 26.6098H227.637H227.643Z" fill="white"/>
<path d="M244.9 23.4047V31.3875C244.9 32.5699 245.009 33.6083 245.222 34.5146C245.442 35.4209 245.832 36.1832 246.41 36.8134C246.983 37.4437 247.769 37.9178 248.761 38.2419C249.754 38.5661 251.015 38.7341 252.544 38.7341C253.409 38.7341 254.183 38.6861 254.859 38.5781C255.535 38.47 256.205 38.368 256.863 38.284L256.631 33.9504C256.272 33.9984 255.925 34.0585 255.577 34.1185C255.236 34.1785 254.883 34.2145 254.524 34.2145C253.427 34.2145 252.696 33.9204 252.325 33.3322C251.953 32.744 251.77 31.8437 251.77 30.6372V23.4047H256.589V18.657H251.77V12.1807L245.003 14.2514V18.657H240.953V23.4047H244.9Z" fill="white"/>
<path d="M258.142 38.284H265.025V18.657H258.142V38.284ZM265.025 10.4881H258.142V15.4579H265.025V10.4881Z" fill="white"/>
<path d="M267.754 38.284H274.631V30.001C274.631 27.8643 274.99 26.3097 275.703 25.3314C276.415 24.353 277.487 23.8608 278.913 23.8608C279.857 23.8608 280.618 24.227 281.209 24.9532C281.794 25.6795 282.086 26.9639 282.086 28.7946V38.284H288.963V26.0456C288.963 25.0433 288.823 24.0649 288.543 23.1106C288.263 22.1562 287.818 21.3219 287.203 20.6077C286.594 19.8934 285.802 19.3172 284.833 18.8731C283.865 18.4349 282.708 18.2128 281.355 18.2128C279.778 18.2128 278.34 18.531 277.055 19.1732C275.77 19.8154 274.783 20.8478 274.095 22.2823H274.015V18.669H267.748V38.29L267.754 38.284Z" fill="white"/>
<path d="M305.763 18.657V22.1983H305.683C304.946 20.9918 304.002 20.0255 302.857 19.2992C301.712 18.573 300.396 18.2068 298.922 18.2068C297.369 18.2068 296.029 18.4649 294.908 18.9811C293.787 19.4973 292.855 20.2115 292.118 21.1299C291.381 22.0482 290.833 23.1286 290.474 24.371C290.114 25.6135 289.938 26.9639 289.938 28.4225C289.938 29.881 290.139 31.2074 290.547 32.4139C290.955 33.6203 291.54 34.6527 292.307 35.523C293.075 36.3873 294.001 37.0655 295.097 37.5577C296.193 38.0499 297.43 38.29 298.806 38.29C300.183 38.29 301.438 38.0199 302.571 37.4797C303.704 36.9395 304.678 36.0932 305.495 34.9348H305.574V35.9911C305.574 37.9238 305.05 39.3583 304.008 40.2827C302.961 41.213 301.45 41.6752 299.458 41.6752C298.033 41.6752 296.815 41.5311 295.81 41.243C294.805 40.9549 293.775 40.5588 292.734 40.0546L292.392 45.4025C293.209 45.6786 294.263 45.9547 295.566 46.2308C296.863 46.5069 298.344 46.6449 300 46.6449C302.01 46.6449 303.771 46.4709 305.275 46.1167C306.78 45.7626 308.029 45.1744 309.021 44.3461C310.014 43.5178 310.763 42.4194 311.257 41.0509C311.756 39.6824 312 37.9959 312 35.9851V18.657H305.763ZM297.046 28.2964C297.046 27.6182 297.131 26.9819 297.296 26.3937C297.46 25.8055 297.71 25.2893 298.039 24.8512C298.368 24.413 298.776 24.0589 299.263 23.7948C299.745 23.5307 300.311 23.3987 300.944 23.3987C301.712 23.3987 302.37 23.5367 302.93 23.8128C303.491 24.0889 303.947 24.4491 304.307 24.8872C304.666 25.3254 304.922 25.8235 305.093 26.3757C305.257 26.9279 305.342 27.4801 305.342 28.0323C305.342 28.7826 305.227 29.4668 305.001 30.085C304.77 30.6973 304.459 31.2315 304.063 31.6876C303.667 32.1378 303.204 32.4859 302.668 32.726C302.132 32.9661 301.56 33.0861 300.951 33.0861C300.439 33.0861 299.952 32.9781 299.477 32.768C299.008 32.5519 298.593 32.2458 298.234 31.8437C297.875 31.4415 297.588 30.9374 297.375 30.3371C297.156 29.7369 297.052 29.0587 297.052 28.3024L297.046 28.2964Z" fill="white"/>
<path d="M224.452 46.3988H225.073V41.8852H226.212V41.333H223.306V41.8852H224.452V46.3988Z" fill="white"/>
<path d="M227.564 46.3988H228.191V44.046H229.927V46.3988H230.555V41.333H229.927V43.4998H228.191V41.333H227.564V46.3988Z" fill="white"/>
<path d="M232.352 46.3988H234.764V45.8526H232.973V44.046H234.593V43.4998H232.973V41.8852H234.666V41.333H232.352V46.3988Z" fill="white"/>
<path d="M238.979 46.3988H239.576V42.0293H239.588L240.946 46.3988H241.403L242.816 42.0293H242.835V46.3988H243.432V41.333H242.487L241.214 45.3605H241.196L239.947 41.333H238.979V46.3988Z" fill="white"/>
<path d="M245.271 46.3988H245.899V41.333H245.271V46.3988Z" fill="white"/>
<path d="M249.663 42.0653V41.4471C249.553 41.3931 249.419 41.3571 249.261 41.3271C249.097 41.2971 248.932 41.2791 248.768 41.2791C248.384 41.2791 248.061 41.3871 247.799 41.5972C247.525 41.8073 247.391 42.1254 247.385 42.5515C247.385 42.8636 247.452 43.1277 247.598 43.3438C247.75 43.5599 248.043 43.8 248.481 44.0701C248.804 44.2681 249.017 44.4422 249.121 44.5862C249.176 44.6643 249.212 44.7423 249.237 44.8263C249.249 44.9044 249.249 45.0004 249.249 45.1024C249.249 45.3065 249.17 45.4926 249.017 45.6486C248.865 45.8107 248.646 45.9007 248.366 45.9067C248.219 45.9067 248.061 45.8707 247.897 45.8047C247.726 45.7386 247.568 45.6666 247.415 45.5826V46.2428C247.696 46.3809 248.043 46.4529 248.457 46.4589C248.938 46.4589 249.298 46.3149 249.541 46.0388C249.785 45.7687 249.901 45.4265 249.901 45.0184C249.901 44.7243 249.828 44.4662 249.681 44.2261C249.523 43.986 249.255 43.7579 248.871 43.5419C248.524 43.3378 248.293 43.1697 248.183 43.0257C248.128 42.9537 248.085 42.8816 248.067 42.8096C248.037 42.7436 248.025 42.6716 248.025 42.5935C248.025 42.3715 248.098 42.1914 248.238 42.0473C248.378 41.9153 248.561 41.8433 248.804 41.8373C249.121 41.8373 249.407 41.9213 249.651 42.0653H249.663Z" fill="white"/>
<path d="M253.494 42.0653V41.4471C253.385 41.3931 253.251 41.357 253.092 41.327C252.928 41.297 252.763 41.279 252.599 41.279C252.215 41.279 251.892 41.3871 251.63 41.5971C251.356 41.8072 251.222 42.1253 251.216 42.5515C251.216 42.8636 251.283 43.1277 251.429 43.3437C251.582 43.5598 251.874 43.7999 252.313 44.07C252.635 44.2681 252.849 44.4421 252.952 44.5862C253.007 44.6642 253.043 44.7422 253.068 44.8263C253.08 44.9043 253.08 45.0003 253.08 45.1024C253.08 45.3064 253.001 45.4925 252.849 45.6486C252.696 45.8106 252.477 45.9007 252.197 45.9067C252.051 45.9067 251.892 45.8706 251.728 45.8046C251.557 45.7386 251.399 45.6666 251.247 45.5825V46.2428C251.527 46.3808 251.874 46.4528 252.288 46.4589C252.769 46.4589 253.129 46.3148 253.372 46.0387C253.616 45.7686 253.732 45.4265 253.732 45.0183C253.732 44.7242 253.659 44.4661 253.512 44.2261C253.354 43.986 253.086 43.7579 252.702 43.5418C252.355 43.3377 252.124 43.1697 252.014 43.0256C251.959 42.9536 251.917 42.8816 251.898 42.8096C251.868 42.7435 251.856 42.6715 251.856 42.5935C251.856 42.3714 251.929 42.1913 252.069 42.0473C252.209 41.9152 252.392 41.8432 252.635 41.8372C252.952 41.8372 253.238 41.9212 253.482 42.0653H253.494Z" fill="white"/>
<path d="M255.279 46.3988H255.9V41.333H255.279V46.3988Z" fill="white"/>
<path d="M257.624 46.3988H258.215V42.2454H258.233L260.103 46.3988H260.883V41.333H260.286V45.5165H260.268L258.398 41.333H257.624V46.3988Z" fill="white"/>
<path d="M265.951 43.6138H264.519V44.166H265.36V45.7626C265.281 45.8046 265.177 45.8346 265.067 45.8526C264.952 45.8826 264.836 45.9007 264.732 45.9007C264.19 45.9007 263.788 45.6966 263.52 45.2944C263.258 44.9103 263.131 44.3821 263.131 43.7219C263.131 43.1037 263.295 42.6295 263.612 42.3054C263.91 41.9873 264.27 41.8252 264.69 41.8252C265.067 41.8252 265.457 41.9333 265.853 42.1373V41.5011C265.506 41.345 265.116 41.273 264.684 41.273C264.02 41.273 263.496 41.5071 263.1 41.9633C262.692 42.4194 262.485 43.0496 262.479 43.8479C262.479 44.5502 262.649 45.1504 263.015 45.6546C263.368 46.1647 263.941 46.4228 264.72 46.4409C264.952 46.4409 265.177 46.4048 265.402 46.3508C265.512 46.3208 265.616 46.2908 265.707 46.2608C265.804 46.2308 265.884 46.2068 265.957 46.1828V43.6078L265.951 43.6138Z" fill="white"/>
<path d="M271.037 46.3988V44.2801H271.457C272.529 44.2801 273.071 43.7699 273.077 42.7675C273.077 42.3234 272.943 41.9753 272.688 41.7232C272.566 41.5911 272.419 41.4951 272.243 41.4231C272.066 41.363 271.853 41.333 271.609 41.333H270.409V46.3988H271.037ZM271.037 41.8432H271.396C272.072 41.8372 272.419 42.1613 272.426 42.8216C272.426 43.1097 272.346 43.3377 272.2 43.5058C272.036 43.6799 271.762 43.7639 271.384 43.7639H271.043V41.8432H271.037Z" fill="white"/>
<path d="M274.521 46.3988H275.148V41.333H274.521V46.3988Z" fill="white"/>
<path d="M276.866 46.3988H279.278V45.8526H277.487V44.046H279.108V43.4998H277.487V41.8852H279.181V41.333H276.866V46.3988Z" fill="white"/>
<path d="M283.767 45.6606C283.499 45.8226 283.207 45.9007 282.872 45.9007C282.33 45.9007 281.928 45.6966 281.666 45.2944C281.404 44.9103 281.276 44.3821 281.276 43.7219C281.276 43.1037 281.441 42.6295 281.751 42.3054C282.05 41.9873 282.409 41.8252 282.829 41.8252C283.183 41.8252 283.493 41.9092 283.761 42.0833V41.4591C283.512 41.339 283.201 41.279 282.823 41.279C282.165 41.279 281.635 41.5131 281.24 41.9693C280.831 42.4254 280.624 43.0556 280.618 43.8539C280.618 44.5562 280.789 45.1564 281.154 45.6606C281.508 46.1708 282.074 46.4288 282.854 46.4469C283.152 46.4469 283.457 46.3928 283.761 46.2968V45.6546L283.767 45.6606Z" fill="white"/>
<path d="M285.351 46.3988H287.763V45.8526H285.978V44.046H287.593V43.4998H285.978V41.8852H287.672V41.333H285.351V46.3988Z" fill="white"/>
<path fill-rule="evenodd" clip-rule="evenodd" d="M5.47994 6.5686C5.47994 8.2672 6.34488 9.93579 7.97732 10.56C8.8849 10.9081 9.34174 10.7941 10.097 11.1002C11.632 11.7244 10.2128 13.5671 9.07373 14.1913L5.57739 16.082L1.25266 18.0327C-0.532051 18.8369 -0.105669 18.6029 0.66791 20.0254C1.33794 21.2558 2.31862 23.2965 2.58054 23.8487L3.99978 26.4657C4.87691 27.9242 6.887 31.9216 8.71435 28.9805C9.59757 27.564 9.25646 26.4837 11.0777 25.7154C16.1456 23.5726 21.1282 31.4054 16.7121 34.1424C15.9568 34.6105 14.9273 34.7606 13.6299 34.3524L12.296 34.0223C11.5467 34.0223 10.8767 33.9443 10.3041 34.4965C9.48793 35.2828 9.93868 36.3572 10.2676 37.2695C10.8889 39.0101 13.3436 42.1852 14.4949 43.7038C14.6837 43.9559 18.8135 49.6819 19.3495 50C19.715 50 20.5069 49.5318 20.7627 49.4718L25.7575 47.4851C25.8975 47.4191 25.9219 47.3891 26.0681 47.329C27.0488 46.9449 28.2366 46.5008 28.9066 45.6485C29.5096 44.8742 29.6314 44.37 29.3939 43.4457C28.5411 41.2369 25.258 41.621 25.258 38.4339C25.258 34.8206 30.3746 32.6538 32.8415 33.7883C34.0841 34.3645 34.2851 35.4208 34.2546 36.5552C34.2181 38.1218 33.8161 40.4026 36.2038 40.5466C36.7764 40.5827 37.4281 40.4446 37.8241 40.2826C38.9814 39.8084 38.6525 40.0065 39.8768 39.3462L45.9131 35.2228L47.7953 33.7162C48.1912 33.4281 49.5679 32.3657 49.5679 32.0416C49.5679 31.6875 49.0318 31.0753 48.7821 30.7752L45.1761 25.9675C44.6949 25.3252 43.4523 23.2785 43.2635 22.5883C43.0929 21.9821 42.8188 21.3458 43.1599 20.7276C43.763 19.6232 45.2005 19.4612 46.3395 19.6893C47.6979 19.9353 49.3973 20.3135 50.6703 19.6472C51.1698 19.3831 51.5901 19.071 51.9495 18.6989C55.0499 15.4638 52.4916 9.79774 49.0562 7.79903C47.2471 6.74866 45.3528 6.8507 43.5254 7.73901C42.6117 8.18317 41.8382 8.97545 41.4118 9.86977C40.8636 11.0162 41.497 12.0966 40.4494 13.201C39.554 14.1553 38.5185 13.6811 37.617 12.9429C36.8007 12.2706 35.7652 10.2419 35.2049 9.26355C34.1633 7.43891 33.0242 4.50387 32.2446 2.43913C32.1288 2.12702 32.0557 1.81491 31.7877 1.64085C31.5562 1.70087 31.2334 2.00698 31.0446 2.15703L28.4376 3.99969C27.195 4.84599 25.8245 5.51222 24.5209 6.26249L20.2815 8.20718C20.0074 8.29721 20.0805 8.28521 19.8612 8.38724C19.2886 8.65734 17.6684 9.1255 17.3151 8.33322C16.6938 6.94673 18.8805 5.37417 16.8887 2.04299C16.4623 1.37676 15.8349 0.740531 15.1162 0.374402C13.4776 -0.465896 10.6635 0.242355 9.07982 1.17869C7.14283 2.31909 5.46775 4.36582 5.46775 6.5806L5.47994 6.5686Z" fill="white"/>
</svg>
